<svg xmlns="http://www.w3.org/2000/svg" viewBox="0 0 25 25"><title>vintage-car</title><g id="budicon-vintage-car"><path d="M24.9844,15.2878l-.3875-2.7122A3,3,0,0,0,21.6272,10H19.6213a1.4994,1.4994,0,0,1-1.0607-.4395l-2.682-2.6819A3,3,0,0,0,13.7573,6H7C4,6,1,9,1,13v3H.5a.5.5,0,0,0,0,1H4.05A2.5,2.5,0,0,0,8.95,17H17.05A2.5,2.5,0,0,0,21.95,17H23.5A1.5,1.5,0,0,0,24.9844,15.2878ZM2.7065,10A5.1415,5.1415,0,0,1,7,7v3ZM6.5,18A1.5,1.5,0,1,1,8,16.5,1.5016,1.5016,0,0,1,6.5,18Zm7-4h-2a.5.5,0,0,1,0-1h2a.5.5,0,0,1,0,1ZM8,10V7h5.7573a1.9875,1.9875,0,0,1,1.4143.5857L17.5858,10Zm11.5,8A1.5,1.5,0,1,1,21,16.5,1.5016,1.5016,0,0,1,19.5,18Z"/></g></svg>