<svg xmlns="http://www.w3.org/2000/svg" viewBox="0 0 25 25"><title>user-c</title><g id="budicon-user-c"><path d="M19.7518,24.2778A55.0837,55.0837,0,0,1,11.5,25a55.0847,55.0847,0,0,1-8.2518-.7222A1.4976,1.4976,0,0,1,2.03,22.5049l.5416-2.708a1.5,1.5,0,0,1,.9138-1.0986l3.8691-1.44A1.5,1.5,0,0,0,8.22,16.34l.1672-.5015,2.3223.9988a2,2,0,0,0,1.5806,0l2.3226-.999.1673.5017a1.5,1.5,0,0,0,.8659.9185l3.8691,1.44a1.5,1.5,0,0,1,.9138,1.0986l.5416,2.708A1.4975,1.4975,0,0,1,19.7518,24.2778ZM12.8485,3.126A10.3692,10.3692,0,0,0,11.5,3a26.4982,26.4982,0,0,0-4.3375.6934A1.496,1.496,0,0,0,6.0073,5.3042l.1653,1.69C9.1714,6.9458,12.1563,5.6257,12.8485,3.126ZM6.27,7.9912,6.79,13.31a1.5,1.5,0,0,0,.8834,1.2214l3.036,1.3059a1.9978,1.9978,0,0,0,1.5806,0l3.0361-1.3059A1.5,1.5,0,0,0,16.21,13.31l.7828-8.0054a1.4959,1.4959,0,0,0-1.1551-1.6108c-.5694-.13-1.2875-.2786-1.9977-.4058C13.0847,6.3057,9.6961,7.9109,6.27,7.9912Z"/></g></svg>